<svg xmlns="http://www.w3.org/2000/svg" viewBox="0 0 320 320" role="img" aria-label="La Belle Nail Studio logo"><circle cx="160" cy="160" r="160" fill="#eecfb2"/><g transform="translate(100.21,77.50) scale(0.9270)"><g transform="translate(0.000000,178.000000) scale(0.100000,-0.100000)"
fill="#141010" stroke="none">
<path d="M125 1685 c-22 -7 -39 -17 -38 -21 1 -5 9 -29 18 -52 21 -58 18
-1043 -2 -1050 -7 -2 -13 -12 -13 -23 0 -17 8 -19 95 -19 87 0 95 2 95 19 0
10 -7 21 -15 25 -13 5 -15 77 -15 571 l0 565 -42 -1 c-24 -1 -61 -7 -83 -14z"/>
<path d="M345 1243 c-62 -19 -60 -17 -41 -45 14 -20 16 -84 16 -565 0 -299 4
-543 8 -543 5 0 19 22 31 49 l23 48 57 -34 c172 -104 433 -108 590 -9 170 108
234 318 151 495 -102 216 -410 300 -634 175 -24 -14 -50 -31 -56 -39 -7 -8
-16 -15 -21 -15 -5 0 -9 113 -9 250 l0 250 -32 -1 c-18 0 -55 -7 -83 -16z
m519 -449 c261 -128 260 -565 -1 -680 -114 -51 -301 2 -379 107 -24 33 -24 35
-24 270 l0 238 36 28 c100 76 256 92 368 37z"/>
</g></g></svg>
