<svg xmlns="http://www.w3.org/2000/svg" viewBox="0 0 320 320" role="img" aria-label="La Belle Nail Studio logo"><circle cx="160" cy="160" r="160" fill="#eecfb2"/><g transform="translate(0.000000,320.000000) scale(0.100000,-0.100000)"
fill="#141010" stroke="none">
<path d="M1225 2745 c-22 -7 -39 -17 -38 -21 1 -5 9 -29 18 -52 21 -58 18
-1043 -2 -1050 -7 -2 -13 -12 -13 -23 0 -17 8 -19 95 -19 87 0 95 2 95 19 0
10 -7 21 -15 25 -13 5 -15 77 -15 571 l0 565 -42 -1 c-24 -1 -61 -7 -83 -14z"/>
<path d="M1445 2303 c-62 -19 -60 -17 -41 -45 14 -20 16 -84 16 -565 0 -299 4
-543 8 -543 5 0 19 22 31 49 l23 48 57 -34 c172 -104 433 -108 590 -9 170 108
234 318 151 495 -102 216 -410 300 -634 175 -24 -14 -50 -31 -56 -39 -7 -8
-16 -15 -21 -15 -5 0 -9 113 -9 250 l0 250 -32 -1 c-18 0 -55 -7 -83 -16z
m519 -449 c261 -128 260 -565 -1 -680 -114 -51 -301 2 -379 107 -24 33 -24 35
-24 270 l0 238 36 28 c100 76 256 92 368 37z"/>
<path d="M1808 900 l-3 -100 34 0 c26 0 32 3 27 16 -3 9 -6 54 -6 100 0 82 0
84 -24 84 -24 0 -25 -2 -28 -100z"/>
<path d="M1890 900 l0 -100 31 0 c24 0 30 3 25 16 -3 9 -6 54 -6 100 0 83 0
84 -25 84 l-25 0 0 -100z"/>
<path d="M1175 890 l0 -90 68 0 67 0 0 38 c-1 32 -2 34 -12 17 -12 -23 -37
-45 -51 -45 -4 0 -7 38 -5 85 l3 85 -35 0 -35 0 0 -90z"/>
<path d="M1515 890 l0 -90 50 0 c28 0 61 6 75 13 32 16 34 57 3 72 -22 11 -22
12 -3 28 42 36 10 67 -68 67 l-57 0 0 -90z m85 45 c0 -19 -4 -35 -10 -35 -5 0
-10 16 -10 35 0 19 5 35 10 35 6 0 10 -16 10 -35z m10 -65 c8 -14 8 -26 0 -40
-17 -32 -30 -23 -30 20 0 43 13 52 30 20z"/>
<path d="M1378 911 c3 -24 -1 -31 -25 -43 -20 -9 -28 -21 -28 -38 0 -23 4 -25
56 -27 l56 -2 -5 57 c-2 36 -10 62 -20 70 -26 20 -39 14 -34 -17z"/>
<path d="M1700 920 c-26 -26 -26 -81 -2 -103 23 -21 56 -22 76 -1 22 21 20 23
-11 21 -22 -2 -29 3 -31 21 -3 19 1 22 27 22 24 0 31 4 31 20 0 39 -58 52 -90
20z"/>
<path d="M1989 921 c-26 -21 -31 -80 -9 -106 18 -22 64 -18 86 6 18 20 18 20
-8 14 -20 -5 -29 -2 -37 13 -13 24 -6 32 31 32 33 0 37 19 10 43 -24 22 -44
21 -73 -2z"/>
<path d="M1333 914 c-8 -21 13 -42 28 -27 13 13 5 43 -11 43 -6 0 -13 -7 -17
-16z"/>
</g></svg>
